<svg aria-hidden="true" style="position: absolute; width: 0; height: 0; overflow: hidden;" version="1.1" xmlns="http://www.w3.org/2000/svg" xmlns:xlink="http://www.w3.org/1999/xlink">

        <g>
           <path d="m689.30595,165.39949l-155.97125,-62.90827c-6.40352,-2.58232 -14.59034,-1.04939 -18.28813,3.42315c-3.69779,4.47347 -1.50214,10.19275 4.90004,12.77601l112.74512,45.4736l-575.30364,0c-7.39424,0 -13.38809,4.18821 -13.38809,9.35286c0,5.16371 5.99385,9.35286 13.38809,9.35286l575.21394,0l-112.65542,45.439c-6.40352,2.58326 -8.59783,8.30253 -4.90004,12.77601c2.48081,3.0004 6.97921,4.6783 11.60614,4.6783c2.27062,0 4.57337,-0.40591 6.682,-1.25515l155.97125,-62.90921c4.14228,-1.67042 6.69405,-4.75874 6.69405,-8.09958c0,-3.34084 -2.55177,-6.42916 -6.69405,-8.09958l-0.00001,0z" id="svg_2" stroke="null"/>
        </g>

        
        <g transform="rotate(180 370 173.5)" id="svg_1" stroke="null">
            <path d="m689.30595,165.39949l-155.97125,-62.90827c-6.40352,-2.58232 -14.59034,-1.04939 -18.28813,3.42315c-3.69779,4.47347 -1.50214,10.19275 4.90004,12.77601l112.74512,45.4736l-575.30364,0c-7.39424,0 -13.38809,4.18821 -13.38809,9.35286c0,5.16371 5.99385,9.35286 13.38809,9.35286l575.21394,0l-112.65542,45.439c-6.40352,2.58326 -8.59783,8.30253 -4.90004,12.77601c2.48081,3.0004 6.97921,4.6783 11.60614,4.6783c2.27062,0 4.57337,-0.40591 6.682,-1.25515l155.97125,-62.90921c4.14228,-1.67042 6.69405,-4.75874 6.69405,-8.09958c0,-3.34084 -2.55177,-6.42916 -6.69405,-8.09958l-0.00001,0z" id="svg_2" stroke="null"/>
        </g>

        <!-- <symbol id="icon-right-fit-arrow" viewBox="0 0 487 487">
            <path d="M482,234.839l-116.5-67.261c-4.783-2.761-10.898-1.122-13.66,3.66c-2.762,4.783-1.122,10.898,3.66,13.66l84.213,48.62H10
                c-5.523,0-10,4.478-10,10c0,5.521,4.477,10,10,10h429.646L355.5,302.101c-4.783,2.762-6.422,8.877-3.66,13.66
                c1.853,3.208,5.213,5.002,8.669,5.002c1.696,0,3.416-0.434,4.991-1.342L482,252.159c3.094-1.786,5-5.088,5-8.66
                C487,239.927,485.094,236.625,482,234.839z" />
        </symbol>

        <symbol id="icon-left-fit-arrow" viewBox="0 0 487 487">
            <path
                d="M482,234.839l-116.5-67.261c-4.783-2.761-10.898-1.122-13.66,3.66c-2.762,4.783-1.122,10.898,3.66,13.66l84.213,48.62H10   c-5.523,0-10,4.478-10,10c0,5.521,4.477,10,10,10h429.646L355.5,302.101c-4.783,2.762-6.422,8.877-3.66,13.66   c1.853,3.208,5.213,5.002,8.669,5.002c1.696,0,3.416-0.434,4.991-1.342L482,252.159c3.094-1.786,5-5.088,5-8.66   C487,239.927,485.094,236.625,482,234.839z" />
        </symbol> -->

</svg>
